<svg width="51" height="51" viewBox="0 0 51 51" fill="none" xmlns="http://www.w3.org/2000/svg">
<g clip-path="url(#clip0_86_200)">
<path fill-rule="evenodd" clip-rule="evenodd" d="M34.1275 23.2476C34.7244 23.8452 35.0597 24.6554 35.0597 25.5001C35.0597 26.3447 34.7244 27.1549 34.1275 27.7526L22.1085 39.7758C21.5105 40.3735 20.6996 40.7092 19.8542 40.709C19.0087 40.7088 18.198 40.3727 17.6003 39.7747C17.0026 39.1768 16.667 38.3659 16.6672 37.5204C16.6674 36.675 17.0034 35.8642 17.6014 35.2666L27.3679 25.5001L17.6014 15.7336C17.0205 15.1327 16.6988 14.3276 16.7057 13.4919C16.7125 12.6561 17.0474 11.8565 17.6381 11.2652C18.2288 10.674 19.0281 10.3384 19.8639 10.3307C20.6996 10.323 21.5049 10.644 22.1064 11.2243L34.1296 23.2454L34.1275 23.2476Z" fill="#00747A"/>
</g>
<defs>
<clipPath id="clip0_86_200">
<rect width="51" height="51" fill="white"/>
</clipPath>
</defs>
</svg>
