<svg width="77" height="77" viewBox="0 0 77 77" fill="none" xmlns="http://www.w3.org/2000/svg">
<path fill-rule="evenodd" clip-rule="evenodd" d="M50.9145 35.0702C51.8069 35.9521 52.3128 37.1521 52.3211 38.4066C52.3293 39.6612 51.8392 40.8677 50.9585 41.7612L33.2248 59.736C32.3425 60.6295 31.1414 61.136 29.8857 61.1439C28.63 61.1519 27.4226 60.6607 26.529 59.7784C25.6355 58.8961 25.1291 57.695 25.1211 56.4393C25.1131 55.1836 25.6043 53.9762 26.4866 53.0827L40.8969 38.4817L26.2959 24.0715C25.4272 23.1847 24.9416 21.9922 24.9437 20.7508C24.9457 19.5094 25.4352 18.3185 26.3068 17.4346C27.1784 16.5506 28.3623 16.0444 29.6035 16.0249C30.8447 16.0053 32.0439 16.4741 32.9429 17.3302L50.9177 35.0671L50.9145 35.0702Z" fill="#004447"/>
</svg>
