<svg width="36" height="36" viewBox="0 0 36 36" fill="none" xmlns="http://www.w3.org/2000/svg">
<path d="M27.5444 25.018C25.5321 25.5012 23.4314 25.4778 21.4304 24.9499C19.4294 24.422 17.5906 23.406 16.0785 21.993C14.5665 20.5801 13.4285 18.8142 12.7664 16.8534C12.1043 14.8927 11.9389 12.7984 12.2848 10.7581C12.233 10.8097 12.1774 10.8575 12.1185 10.9009C11.7063 11.2144 11.191 11.3308 10.1604 11.5634L9.22556 11.7754C5.60389 12.5954 3.79306 13.0047 3.36169 14.39C2.93181 15.7739 4.16553 17.2182 6.63444 20.1052L7.27339 20.8516C7.97417 21.6716 8.32603 22.0824 8.48355 22.5888C8.64108 23.0968 8.58808 23.6444 8.48208 24.7383L8.38492 25.735C8.01244 29.5878 7.82547 31.5134 8.95319 32.3688C10.0809 33.2242 11.7769 32.4454 15.166 30.8833L16.0449 30.4799C17.0077 30.0353 17.4891 29.8145 18 29.8145C18.5109 29.8145 18.9923 30.0353 19.9566 30.4799L20.8326 30.8833C24.2231 32.4439 25.9191 33.2242 27.0453 32.3703C28.1745 31.5134 27.9876 29.5878 27.6151 25.735L27.5444 25.018Z" fill="#004447"/>
<path opacity="0.5" d="M13.8086 8.29492L13.3257 9.16059C12.7957 10.1116 12.5307 10.5872 12.1185 10.9008C12.1774 10.8566 12.2328 10.809 12.2848 10.7579C11.9388 12.7985 12.1043 14.8929 12.7664 16.8538C13.4285 18.8147 14.5667 20.5807 16.0789 21.9937C17.5911 23.4067 19.4302 24.4226 21.4314 24.9504C23.4326 25.4782 25.5335 25.5014 27.5459 25.0179L27.5164 24.7382C27.4119 23.6443 27.3589 23.0966 27.5164 22.5887C27.674 22.0823 28.0244 21.6715 28.7266 20.8515L29.3656 20.1051C31.8345 17.2195 33.0682 15.7753 32.6368 14.3899C32.2069 13.0046 30.3961 12.5938 26.7744 11.7753L25.8381 11.5633C24.809 11.3306 24.2937 11.2143 23.8801 10.9008C23.4678 10.5872 23.2028 10.1116 22.6728 9.16059L22.1914 8.29492C20.3261 4.95003 19.3942 3.27759 18 3.27759C16.6058 3.27759 15.6739 4.95003 13.8086 8.29492Z" fill="#00747A"/>
</svg>
