<svg width="40" height="40" viewBox="0 0 40 40" fill="none" xmlns="http://www.w3.org/2000/svg">
<path d="M20 40C17.2333 40 14.6333 39.4747 12.2 38.424C9.76667 37.3733 7.65 35.9487 5.85 34.15C4.05 32.3513 2.62533 30.2347 1.576 27.8C0.526667 25.3653 0.00133396 22.7653 6.24296e-07 20C-0.00133271 17.2347 0.524001 14.6347 1.576 12.2C2.628 9.76533 4.05267 7.64867 5.85 5.85C7.64733 4.05133 9.764 2.62667 12.2 1.576C14.636 0.525334 17.236 0 20 0C22.764 0 25.364 0.525334 27.8 1.576C30.236 2.62667 32.3527 4.05133 34.15 5.85C35.9473 7.64867 37.3727 9.76533 38.426 12.2C39.4793 14.6347 40.004 17.2347 40 20C39.996 22.7653 39.4707 25.3653 38.424 27.8C37.3773 30.2347 35.9527 32.3513 34.15 34.15C32.3473 35.9487 30.2307 37.374 27.8 38.426C25.3693 39.478 22.7693 40.0027 20 40ZM18 35.9V32C16.9 32 15.9587 31.6087 15.176 30.826C14.3933 30.0433 14.0013 29.1013 14 28V26L4.4 16.4C4.3 17 4.20867 17.6 4.126 18.2C4.04333 18.8 4.00133 19.4 4 20C4 24.0333 5.32533 27.5667 7.976 30.6C10.6267 33.6333 13.968 35.4 18 35.9ZM31.8 30.8C32.4667 30.0667 33.0667 29.2753 33.6 28.426C34.1333 27.5767 34.5747 26.6933 34.924 25.776C35.2733 24.8587 35.54 23.9167 35.724 22.95C35.908 21.9833 36 21 36 20C36 16.7333 35.0913 13.75 33.274 11.05C31.4567 8.35 29.032 6.4 26 5.2V6C26 7.1 25.6087 8.042 24.826 8.826C24.0433 9.61 23.1013 10.0013 22 10H18V14C18 14.5667 17.808 15.042 17.424 15.426C17.04 15.81 16.5653 16.0013 16 16H12V20H24C24.5667 20 25.042 20.192 25.426 20.576C25.81 20.96 26.0013 21.4347 26 22V28H28C28.8667 28 29.65 28.2587 30.35 28.776C31.05 29.2933 31.5333 29.968 31.8 30.8Z" fill="#00747A"/>
</svg>
