<svg width="42" height="42" viewBox="0 0 42 42" fill="none" xmlns="http://www.w3.org/2000/svg">
<path d="M32.9844 11.9532C32.9844 12.5342 32.8121 13.1021 32.4893 13.5852C32.1665 14.0682 31.7078 14.4447 31.171 14.6671C30.6343 14.8894 30.0436 14.9476 29.4738 14.8342C28.904 14.7209 28.3806 14.4411 27.9697 14.0303C27.5589 13.6195 27.2792 13.0961 27.1658 12.5263C27.0525 11.9564 27.1106 11.3658 27.333 10.829C27.5553 10.2923 27.9318 9.83352 28.4149 9.51074C28.898 9.18796 29.4659 9.01568 30.0469 9.01568C30.8259 9.01568 31.5731 9.32517 32.124 9.87606C32.6749 10.4269 32.9844 11.1741 32.9844 11.9532ZM41.7969 16.1281C41.6528 20.1224 39.969 23.906 37.0982 26.6868C34.2274 29.4677 30.392 31.0301 26.3952 31.0469H26.375C24.9054 31.0493 23.4431 30.8403 22.033 30.4264L20.59 31.8713C20.3852 32.0758 20.1422 32.238 19.8747 32.3485C19.6073 32.4591 19.3207 32.5159 19.0312 32.5157H16.8281V34.7188C16.8281 35.3031 16.596 35.8635 16.1828 36.2767C15.7697 36.6898 15.2093 36.9219 14.625 36.9219H12.4219V39.1251C12.4219 39.7094 12.1898 40.2697 11.7766 40.6829C11.3634 41.0961 10.8031 41.3282 10.2188 41.3282H4.34375C3.36991 41.3282 2.43595 40.9413 1.74734 40.2527C1.05873 39.5641 0.671875 38.6301 0.671875 37.6563V32.389C0.670569 31.9066 0.764988 31.4288 0.949664 30.9832C1.13434 30.5376 1.4056 30.133 1.74773 29.793L11.5737 19.967C10.9513 17.827 10.8002 15.5775 11.1308 13.3734C11.4613 11.1693 12.2657 9.06309 13.4884 7.19974C14.7111 5.33638 16.3232 3.76019 18.2136 2.57972C20.1041 1.39924 22.2279 0.642529 24.4388 0.361694C26.6498 0.0808593 28.8953 0.282576 31.0208 0.952951C33.1463 1.62333 35.1013 2.74643 36.751 4.24492C38.4008 5.7434 39.7062 7.58167 40.5773 9.6331C41.4483 11.6845 41.8644 13.9004 41.7969 16.1281ZM34.1649 7.83517C33.1021 6.76281 31.8285 5.92249 30.4245 5.36727C29.0205 4.81206 27.5166 4.55401 26.0078 4.60943C20.1328 4.79302 15.3594 9.72986 15.3594 15.6049C15.3549 16.9995 15.6166 18.3823 16.1305 19.6788C16.3037 20.0836 16.3517 20.5309 16.2682 20.9632C16.1848 21.3955 15.9737 21.7929 15.6623 22.1041L5.07812 32.6993V36.9219H8.01562V34.7188C8.01562 34.1345 8.24774 33.5741 8.6609 33.161C9.07407 32.7478 9.63445 32.5157 10.2188 32.5157H12.4219V30.3126C12.4219 29.7283 12.654 29.1679 13.0672 28.7547C13.4803 28.3415 14.0407 28.1094 14.625 28.1094H18.1133L19.885 26.3378C20.1963 26.0259 20.594 25.8147 21.0267 25.7312C21.4593 25.6478 21.9071 25.696 22.3121 25.8696C23.6051 26.3825 24.984 26.6442 26.375 26.6407H26.3897C32.2647 26.6407 37.1979 21.8544 37.3851 15.9922C37.4405 14.484 37.1829 12.9805 36.6287 11.5767C36.0745 10.1728 35.2356 8.89891 34.1649 7.83517Z" fill="#00747A"/>
</svg>
