<svg width="383" height="170" viewBox="0 0 383 170" fill="none" xmlns="http://www.w3.org/2000/svg">
<path d="M2 77.5421L7.04821 75.1111C63.6218 47.8675 129.522 47.8675 186.096 75.1111L191.144 77.5421L196.192 79.9731C252.766 107.217 318.667 107.217 375.24 79.9731L380.288 77.5421" stroke="white" stroke-width="3.90361" stroke-linecap="round" stroke-linejoin="round"/>
<path d="M2 61.1565L7.04821 58.7255C63.6218 31.4819 129.522 31.482 186.096 58.7255L191.144 61.1565L196.192 63.5875C252.766 90.8311 318.667 90.8311 375.24 63.5875L380.288 61.1565" stroke="white" stroke-width="3.90361" stroke-linecap="round" stroke-linejoin="round"/>
<path d="M2 45.5421L7.04821 43.1111C63.6218 15.8675 129.522 15.8675 186.096 43.1111L191.144 45.5421L196.192 47.9731C252.766 75.2166 318.667 75.2166 375.24 47.9731L380.288 45.5421" stroke="white" stroke-width="3.90361" stroke-linecap="round" stroke-linejoin="round"/>
<path d="M2 92.3854L7.04821 89.9543C63.6218 62.7108 129.522 62.7108 186.096 89.9543L191.144 92.3854L196.192 94.8164C252.766 122.06 318.667 122.06 375.24 94.8163L380.288 92.3854" stroke="white" stroke-width="3.90361" stroke-linecap="round" stroke-linejoin="round"/>
<path d="M2 108L7.04821 105.569C63.6218 78.3252 129.522 78.3252 186.096 105.569L191.144 108L196.192 110.431C252.766 137.674 318.667 137.674 375.24 110.431L380.288 108" stroke="white" stroke-width="3.90361" stroke-linecap="round" stroke-linejoin="round"/>
<path d="M2 123.614L7.04821 121.183C63.6218 93.9396 129.522 93.9396 186.096 121.183L191.144 123.614L196.192 126.045C252.766 153.289 318.667 153.289 375.24 126.045L380.288 123.614" stroke="white" stroke-width="3.90361" stroke-linecap="round" stroke-linejoin="round"/>
</svg>
