<svg width="38" height="38" viewBox="0 0 38 38" fill="none" xmlns="http://www.w3.org/2000/svg">
<path d="M18.0667 28.2505L29.5716 16.7456C27.6361 15.937 25.8783 14.7563 24.3978 13.2705C22.9112 11.7897 21.7299 10.0313 20.9211 8.09514L9.41622 19.6C8.51867 20.4976 8.06911 20.9471 7.68333 21.4418C7.22817 22.0259 6.83752 22.6575 6.51822 23.3256C6.24911 23.8918 6.04844 24.4954 5.64711 25.6994L3.52844 32.0507C3.43093 32.3415 3.41647 32.6537 3.48667 32.9523C3.55687 33.2509 3.70896 33.524 3.92584 33.7408C4.14273 33.9577 4.4158 34.1098 4.71438 34.18C5.01296 34.2502 5.32519 34.2358 5.616 34.1382L11.9673 32.0196C13.1729 31.6182 13.7749 31.4176 14.3411 31.1485C15.0121 30.8291 15.64 30.4407 16.2249 29.9834C16.7196 29.5976 17.1691 29.148 18.0667 28.2505ZM32.7636 13.5536C33.9107 12.4065 34.5551 10.8506 34.5551 9.22836C34.5551 7.60609 33.9107 6.05026 32.7636 4.90314C31.6164 3.75602 30.0606 3.11157 28.4383 3.11157C26.8161 3.11157 25.2602 3.75602 24.1131 4.90314L22.7333 6.28292L22.7924 6.45558C23.4722 8.40124 24.5849 10.1671 26.0467 11.62C27.543 13.1255 29.3707 14.2602 31.3838 14.9334L32.7636 13.5536Z" fill="#00747A"/>
</svg>
