<svg width="58" height="63" viewBox="0 0 58 63" fill="none" xmlns="http://www.w3.org/2000/svg">
<path d="M8.91989 16.5165C12.3105 12.5239 17.4411 10.5 24.1666 10.5H26.5833V17.8999L24.6403 18.3225C21.3295 19.0417 19.0264 20.4566 17.7939 22.533C17.1506 23.6515 16.7859 24.9323 16.7354 26.25H24.1666C24.8076 26.25 25.4223 26.5266 25.8755 27.0188C26.3287 27.5111 26.5833 28.1788 26.5833 28.875V47.25C26.5833 50.1454 24.4156 52.5 21.75 52.5H7.24998C6.60904 52.5 5.99435 52.2234 5.54114 51.7312C5.08792 51.2389 4.83331 50.5712 4.83331 49.875V36.75L4.84056 29.0876C4.81881 28.7963 4.35964 21.8925 8.91989 16.5165ZM48.3333 52.5H33.8333C33.1924 52.5 32.5777 52.2234 32.1245 51.7312C31.6713 51.2389 31.4166 50.5712 31.4166 49.875V36.75L31.4239 29.0876C31.4021 28.7963 30.943 21.8925 35.5032 16.5165C38.8938 12.5239 44.0244 10.5 50.75 10.5H53.1666V17.8999L51.2236 18.3225C47.9128 19.0417 45.6097 20.4566 44.3772 22.533C43.7339 23.6515 43.3692 24.9323 43.3187 26.25H50.75C51.3909 26.25 52.0056 26.5266 52.4588 27.0188C52.912 27.5111 53.1666 28.1788 53.1666 28.875V47.25C53.1666 50.1454 50.9989 52.5 48.3333 52.5Z" fill="black"/>
</svg>
