<svg width="64" height="68" viewBox="0 0 64 68" fill="none" xmlns="http://www.w3.org/2000/svg">
<g clip-path="url(#clip0_52_258)">
<path fill-rule="evenodd" clip-rule="evenodd" d="M40 59.0805C40 61.3189 39.1571 63.4657 37.6568 65.0485C36.1566 66.6313 34.1217 67.5205 32 67.5205C29.8783 67.5205 27.8434 66.6313 26.3431 65.0485C24.8429 63.4657 24 61.3189 24 59.0805C24 56.842 24.8429 54.6953 26.3431 53.1124C27.8434 51.5296 29.8783 50.6404 32 50.6404C34.1217 50.6404 36.1566 51.5296 37.6568 53.1124C39.1571 54.6953 40 56.842 40 59.0805ZM47.12 21.7711C46.5575 21.1784 45.795 20.8455 45 20.8455C44.205 20.8455 43.4425 21.1784 42.88 21.7711L35 30.0846V3.16502C35 2.32561 34.6839 1.52057 34.1213 0.927014C33.5587 0.333457 32.7956 0 32 0C31.2043 0 30.4413 0.333457 29.8787 0.927014C29.3161 1.52057 29 2.32561 29 3.16502V30.0846L21.12 21.7711C20.5513 21.2121 19.7991 20.9077 19.0219 20.9222C18.2447 20.9367 17.5032 21.2688 16.9535 21.8487C16.4039 22.4286 16.089 23.2109 16.0753 24.0309C16.0616 24.8508 16.3501 25.6444 16.88 26.2444L29.88 39.9595L32 42.2003L34.12 39.9637L47.12 26.2486C47.3988 25.9547 47.6199 25.6057 47.7708 25.2215C47.9217 24.8374 47.9994 24.4257 47.9994 24.0099C47.9994 23.5941 47.9217 23.1823 47.7708 22.7982C47.6199 22.4141 47.3988 22.0651 47.12 21.7711Z" fill="#00747A"/>
</g>
<defs>
<clipPath id="clip0_52_258">
<rect width="64" height="67.5205" fill="white"/>
</clipPath>
</defs>
</svg>
