<svg width="32" height="68" viewBox="0 0 32 68" fill="none" xmlns="http://www.w3.org/2000/svg">
<path fill-rule="evenodd" clip-rule="evenodd" d="M24 59.0805C24 61.3189 23.1571 63.4657 21.6568 65.0485C20.1566 66.6313 18.1217 67.5205 16 67.5205C13.8783 67.5205 11.8434 66.6313 10.3431 65.0485C8.84285 63.4657 8 61.3189 8 59.0805C8 56.842 8.84285 54.6953 10.3431 53.1124C11.8434 51.5296 13.8783 50.6404 16 50.6404C18.1217 50.6404 20.1566 51.5296 21.6568 53.1124C23.1571 54.6953 24 56.842 24 59.0805ZM31.12 21.7711C30.5575 21.1784 29.795 20.8455 29 20.8455C28.205 20.8455 27.4425 21.1784 26.88 21.7711L19 30.0846V3.16502C19 2.32561 18.6839 1.52057 18.1213 0.927014C17.5587 0.333457 16.7956 0 16 0C15.2043 0 14.4413 0.333457 13.8787 0.927014C13.3161 1.52057 13 2.32561 13 3.16502V30.0846L5.12 21.7711C4.5513 21.2121 3.79911 20.9077 3.02191 20.9222C2.2447 20.9367 1.50316 21.2688 0.953508 21.8487C0.403856 22.4286 0.0890094 23.2109 0.0752965 24.0309C0.0615836 24.8508 0.350075 25.6444 0.879995 26.2444L13.88 39.9595L16 42.2003L18.12 39.9637L31.12 26.2486C31.3988 25.9547 31.6199 25.6057 31.7708 25.2215C31.9217 24.8374 31.9994 24.4257 31.9994 24.0099C31.9994 23.5941 31.9217 23.1823 31.7708 22.7982C31.6199 22.4141 31.3988 22.0651 31.12 21.7711Z" fill="#00747A"/>
</svg>
