<svg width="183" height="52" viewBox="0 0 183 52" fill="none" xmlns="http://www.w3.org/2000/svg">
<path d="M21.5468 33.0976C20.9805 37.0519 17.4071 39.8041 13.5727 39.2551C9.73829 38.706 7.0808 35.0615 7.64703 31.1072C8.21326 27.1529 11.7867 24.4007 15.6211 24.9497C19.4555 25.4988 22.113 29.1433 21.5468 33.0976Z" fill="#FFDE5B" stroke="#145765" stroke-width="0.3"/>
<circle cx="23.4994" cy="10.4036" r="7.43052" transform="rotate(8.149 23.4994 10.4036)" fill="#FAFAFA" stroke="#145765" stroke-width="0.3"/>
<circle cx="19.0918" cy="20.9487" r="7.43052" transform="rotate(8.149 19.0918 20.9487)" fill="#FAFAFA" stroke="#145765" stroke-width="0.3"/>
<mask id="path-4-inside-1_84_420" fill="white">
<path fill-rule="evenodd" clip-rule="evenodd" d="M19.3122 37.6879C20.8662 36.5694 22.0002 34.8651 22.3529 32.8295C23.0675 28.7043 20.3027 24.7809 16.1776 24.0662C12.0524 23.3516 8.12896 26.1164 7.41432 30.2415C7.23137 31.2976 7.27646 32.3405 7.51404 33.3197L2.09936 35.804L8.07081 48.8188L21.5762 42.6223L19.3122 37.6879ZM19.3122 37.6879L15.6048 29.6075L7.51404 33.3197C8.20448 36.1653 10.5206 38.4731 13.5896 39.0048C15.6792 39.3668 17.717 38.836 19.3122 37.6879Z"/>
</mask>
<path fill-rule="evenodd" clip-rule="evenodd" d="M19.3122 37.6879C20.8662 36.5694 22.0002 34.8651 22.3529 32.8295C23.0675 28.7043 20.3027 24.7809 16.1776 24.0662C12.0524 23.3516 8.12896 26.1164 7.41432 30.2415C7.23137 31.2976 7.27646 32.3405 7.51404 33.3197L2.09936 35.804L8.07081 48.8188L21.5762 42.6223L19.3122 37.6879ZM19.3122 37.6879L15.6048 29.6075L7.51404 33.3197C8.20448 36.1653 10.5206 38.4731 13.5896 39.0048C15.6792 39.3668 17.717 38.836 19.3122 37.6879Z" fill="#FAFAFA"/>
<path d="M2.09936 35.804L1.97425 35.5314L1.70158 35.6565L1.82669 35.9292L2.09936 35.804ZM8.07081 48.8188L7.79814 48.9439L7.92325 49.2166L8.19591 49.0915L8.07081 48.8188ZM21.5762 42.6223L21.7013 42.895L21.974 42.7698L21.8489 42.4972L21.5762 42.6223ZM15.6048 29.6075L15.8774 29.4824L15.7523 29.2097L15.4797 29.3348L15.6048 29.6075ZM22.0573 32.7783C21.7186 34.7334 20.6298 36.3699 19.137 37.4444L19.4875 37.9314C21.1026 36.7689 22.2819 34.9967 22.6485 32.8807L22.0573 32.7783ZM16.1263 24.3618C20.0883 25.0482 22.7436 28.8163 22.0573 32.7783L22.6485 32.8807C23.3914 28.5923 20.5172 24.5135 16.2288 23.7706L16.1263 24.3618ZM7.70992 30.2927C8.39628 26.3308 12.1644 23.6755 16.1263 24.3618L16.2288 23.7706C11.9403 23.0277 7.86165 25.9019 7.11872 30.1903L7.70992 30.2927ZM7.80558 33.2489C7.57751 32.3089 7.53411 31.3076 7.70992 30.2927L7.11872 30.1903C6.92862 31.2877 6.97541 32.372 7.2225 33.3904L7.80558 33.2489ZM2.22447 36.0767L7.63915 33.5924L7.38894 33.047L1.97425 35.5314L2.22447 36.0767ZM8.34348 48.6937L2.37203 35.6789L1.82669 35.9292L7.79814 48.9439L8.34348 48.6937ZM21.4511 42.3496L7.9457 48.5462L8.19591 49.0915L21.7013 42.895L21.4511 42.3496ZM19.0395 37.813L21.3036 42.7474L21.8489 42.4972L19.5849 37.5628L19.0395 37.813ZM15.3321 29.7326L19.0395 37.813L19.5849 37.5628L15.8774 29.4824L15.3321 29.7326ZM7.63915 33.5924L15.7299 29.8802L15.4797 29.3348L7.38894 33.047L7.63915 33.5924ZM13.6408 38.7092C10.6937 38.1986 8.46886 35.9826 7.80558 33.2489L7.2225 33.3904C7.94011 36.348 10.3474 38.7476 13.5384 39.3004L13.6408 38.7092ZM19.137 37.4444C17.6045 38.5473 15.6478 39.0568 13.6408 38.7092L13.5384 39.3004C15.7106 39.6767 17.8295 39.1246 19.4875 37.9314L19.137 37.4444Z" fill="#145765" mask="url(#path-4-inside-1_84_420)"/>
<path d="M46.3472 24L44.2663 16.7273H45.946L47.1498 21.7805H47.2102L48.5383 16.7273H49.9765L51.3011 21.7912H51.365L52.5688 16.7273H54.2485L52.1675 24H50.669L49.284 19.245H49.2272L47.8458 24H46.3472ZM54.7013 24V18.5455H56.1679V19.4972H56.2247C56.3242 19.1586 56.4911 18.9029 56.7254 18.7301C56.9598 18.5549 57.2297 18.4673 57.5351 18.4673C57.6108 18.4673 57.6925 18.4721 57.7801 18.4815C57.8677 18.491 57.9447 18.504 58.0109 18.5206V19.8629C57.9399 19.8416 57.8417 19.8227 57.7162 19.8061C57.5907 19.7895 57.4759 19.7812 57.3717 19.7812C57.1492 19.7812 56.9503 19.8298 56.7751 19.9268C56.6023 20.0215 56.465 20.1541 56.3632 20.3246C56.2638 20.495 56.2141 20.6915 56.2141 20.9141V24H54.7013ZM58.7931 24V18.5455H60.3059V24H58.7931ZM59.553 17.8423C59.3281 17.8423 59.1352 17.7678 58.9742 17.6186C58.8156 17.4671 58.7363 17.286 58.7363 17.0753C58.7363 16.867 58.8156 16.6882 58.9742 16.5391C59.1352 16.3875 59.3281 16.3118 59.553 16.3118C59.7779 16.3118 59.9697 16.3875 60.1283 16.5391C60.2893 16.6882 60.3698 16.867 60.3698 17.0753C60.3698 17.286 60.2893 17.4671 60.1283 17.6186C59.9697 17.7678 59.7779 17.8423 59.553 17.8423ZM64.419 18.5455V19.6818H61.1342V18.5455H64.419ZM61.8799 17.2386H63.3927V22.3239C63.3927 22.4635 63.414 22.5724 63.4566 22.6506C63.4992 22.7263 63.5584 22.7796 63.6342 22.8104C63.7123 22.8411 63.8023 22.8565 63.9041 22.8565C63.9751 22.8565 64.0461 22.8506 64.1171 22.8388C64.1881 22.8246 64.2426 22.8139 64.2805 22.8068L64.5184 23.9325C64.4426 23.9562 64.3361 23.9834 64.1988 24.0142C64.0615 24.0473 63.8946 24.0675 63.6981 24.0746C63.3335 24.0888 63.0139 24.0402 62.7393 23.929C62.467 23.8177 62.2551 23.6449 62.1036 23.4105C61.9521 23.1761 61.8775 22.8802 61.8799 22.5227V17.2386ZM67.8316 24.1065C67.2705 24.1065 66.7876 23.9929 66.3827 23.7656C65.9803 23.536 65.6701 23.2116 65.4523 22.7926C65.2345 22.3712 65.1256 21.8729 65.1256 21.2976C65.1256 20.7365 65.2345 20.2441 65.4523 19.8203C65.6701 19.3965 65.9767 19.0663 66.3721 18.8295C66.7698 18.5928 67.2362 18.4744 67.7712 18.4744C68.1311 18.4744 68.4661 18.5324 68.7762 18.6484C69.0887 18.7621 69.361 18.9337 69.593 19.1634C69.8273 19.393 70.0096 19.6818 70.1398 20.0298C70.2701 20.3755 70.3352 20.7803 70.3352 21.2443V21.6598H65.7293V20.7223H68.9112C68.9112 20.5045 68.8638 20.3116 68.7691 20.1435C68.6744 19.9754 68.543 19.844 68.3749 19.7493C68.2092 19.6522 68.0163 19.6037 67.7961 19.6037C67.5665 19.6037 67.3629 19.657 67.1853 19.7635C67.0101 19.8677 66.8728 20.0085 66.7734 20.1861C66.6739 20.3613 66.623 20.5566 66.6207 20.772V21.6634C66.6207 21.9332 66.6704 22.1664 66.7698 22.3629C66.8716 22.5594 67.0148 22.7109 67.1995 22.8175C67.3842 22.924 67.6032 22.9773 67.8565 22.9773C68.0246 22.9773 68.1784 22.9536 68.3181 22.9062C68.4578 22.8589 68.5773 22.7879 68.6768 22.6932C68.7762 22.5985 68.852 22.4825 68.9041 22.3452L70.3032 22.4375C70.2322 22.7737 70.0866 23.0672 69.8664 23.3182C69.6486 23.5668 69.3669 23.7609 69.0212 23.9006C68.678 24.0379 68.2814 24.1065 67.8316 24.1065ZM73.8082 24.1065C73.2471 24.1065 72.7641 23.9929 72.3593 23.7656C71.9568 23.536 71.6467 23.2116 71.4289 22.7926C71.2111 22.3712 71.1022 21.8729 71.1022 21.2976C71.1022 20.7365 71.2111 20.2441 71.4289 19.8203C71.6467 19.3965 71.9533 19.0663 72.3487 18.8295C72.7464 18.5928 73.2128 18.4744 73.7478 18.4744C74.1076 18.4744 74.4426 18.5324 74.7528 18.6484C75.0653 18.7621 75.3375 18.9337 75.5695 19.1634C75.8039 19.393 75.9862 19.6818 76.1164 20.0298C76.2466 20.3755 76.3117 20.7803 76.3117 21.2443V21.6598H71.7059V20.7223H74.8877C74.8877 20.5045 74.8404 20.3116 74.7457 20.1435C74.651 19.9754 74.5196 19.844 74.3515 19.7493C74.1858 19.6522 73.9928 19.6037 73.7727 19.6037C73.543 19.6037 73.3394 19.657 73.1619 19.7635C72.9867 19.8677 72.8494 20.0085 72.7499 20.1861C72.6505 20.3613 72.5996 20.5566 72.5972 20.772V21.6634C72.5972 21.9332 72.6469 22.1664 72.7464 22.3629C72.8482 22.5594 72.9914 22.7109 73.1761 22.8175C73.3607 22.924 73.5797 22.9773 73.833 22.9773C74.0011 22.9773 74.155 22.9536 74.2947 22.9062C74.4344 22.8589 74.5539 22.7879 74.6533 22.6932C74.7528 22.5985 74.8285 22.4825 74.8806 22.3452L76.2798 22.4375C76.2087 22.7737 76.0631 23.0672 75.843 23.3182C75.6252 23.5668 75.3434 23.7609 74.9978 23.9006C74.6545 24.0379 74.258 24.1065 73.8082 24.1065ZM78.8117 20.8466V24H77.2989V18.5455H78.7407V19.5078H78.8046C78.9254 19.1906 79.1278 18.9396 79.4119 18.755C79.696 18.5679 80.0404 18.4744 80.4452 18.4744C80.824 18.4744 81.1543 18.5573 81.436 18.723C81.7177 18.8887 81.9367 19.1255 82.093 19.4332C82.2492 19.7386 82.3273 20.1032 82.3273 20.527V24H80.8146V20.7969C80.8169 20.4631 80.7317 20.2027 80.5589 20.0156C80.3861 19.8262 80.1481 19.7315 79.8451 19.7315C79.6415 19.7315 79.4616 19.7753 79.3053 19.8629C79.1514 19.9505 79.0307 20.0784 78.9431 20.2464C78.8579 20.4122 78.8141 20.6122 78.8117 20.8466ZM44.7102 36V28.7273H46.2478V34.7322H49.3657V36H44.7102ZM52.8414 36.1065C52.2803 36.1065 51.7973 35.9929 51.3925 35.7656C50.99 35.536 50.6799 35.2116 50.4621 34.7926C50.2443 34.3712 50.1354 33.8729 50.1354 33.2976C50.1354 32.7365 50.2443 32.2441 50.4621 31.8203C50.6799 31.3965 50.9865 31.0663 51.3819 30.8295C51.7796 30.5928 52.246 30.4744 52.781 30.4744C53.1409 30.4744 53.4758 30.5324 53.786 30.6484C54.0985 30.7621 54.3707 30.9337 54.6027 31.1634C54.8371 31.393 55.0194 31.6818 55.1496 32.0298C55.2798 32.3755 55.3449 32.7803 55.3449 33.2443V33.6598H50.7391V32.7223H53.9209C53.9209 32.5045 53.8736 32.3116 53.7789 32.1435C53.6842 31.9754 53.5528 31.844 53.3847 31.7493C53.219 31.6522 53.026 31.6037 52.8059 31.6037C52.5762 31.6037 52.3726 31.657 52.1951 31.7635C52.0199 31.8677 51.8826 32.0085 51.7831 32.1861C51.6837 32.3613 51.6328 32.5566 51.6304 32.772V33.6634C51.6304 33.9332 51.6802 34.1664 51.7796 34.3629C51.8814 34.5594 52.0246 34.7109 52.2093 34.8175C52.3939 34.924 52.6129 34.9773 52.8662 34.9773C53.0343 34.9773 53.1882 34.9536 53.3279 34.9062C53.4676 34.8589 53.5871 34.7879 53.6865 34.6932C53.786 34.5985 53.8617 34.4825 53.9138 34.3452L55.313 34.4375C55.2419 34.7737 55.0963 35.0672 54.8762 35.3182C54.6584 35.5668 54.3766 35.7609 54.031 35.9006C53.6877 36.0379 53.2912 36.1065 52.8414 36.1065ZM57.8875 36.103C57.5395 36.103 57.2294 36.0426 56.9571 35.9219C56.6849 35.7988 56.4695 35.6177 56.3108 35.3786C56.1546 35.1371 56.0765 34.8364 56.0765 34.4766C56.0765 34.1735 56.1321 33.919 56.2434 33.7131C56.3546 33.5071 56.5061 33.3414 56.6979 33.2159C56.8897 33.0904 57.1075 32.9957 57.3513 32.9318C57.5975 32.8679 57.8556 32.8229 58.1255 32.7969C58.4427 32.7637 58.6984 32.733 58.8925 32.7045C59.0866 32.6738 59.2275 32.6288 59.3151 32.5696C59.4027 32.5104 59.4465 32.4228 59.4465 32.3068V32.2855C59.4465 32.0606 59.3755 31.8866 59.2334 31.7635C59.0937 31.6404 58.8949 31.5788 58.6368 31.5788C58.3646 31.5788 58.148 31.6392 57.987 31.7599C57.826 31.8783 57.7195 32.0275 57.6674 32.2074L56.2682 32.0938C56.3392 31.7623 56.4789 31.4759 56.6873 31.2344C56.8956 30.9905 57.1643 30.8035 57.4934 30.6733C57.8248 30.5407 58.2083 30.4744 58.6439 30.4744C58.947 30.4744 59.237 30.5099 59.514 30.581C59.7933 30.652 60.0407 30.7621 60.2561 30.9112C60.4739 31.0604 60.6456 31.2521 60.7711 31.4865C60.8965 31.7185 60.9593 31.9967 60.9593 32.321V36H59.5246V35.2436H59.482C59.3944 35.4141 59.2772 35.5644 59.1304 35.6946C58.9837 35.8224 58.8073 35.9231 58.6013 35.9964C58.3954 36.0675 58.1574 36.103 57.8875 36.103ZM58.3208 35.0589C58.5433 35.0589 58.7398 35.0152 58.9103 34.9276C59.0807 34.8376 59.2145 34.7169 59.3115 34.5653C59.4086 34.4138 59.4571 34.2422 59.4571 34.0504V33.4716C59.4098 33.5024 59.3447 33.5308 59.2618 33.5568C59.1813 33.5805 59.0902 33.603 58.9884 33.6243C58.8866 33.6432 58.7848 33.661 58.683 33.6776C58.5812 33.6918 58.4889 33.7048 58.406 33.7166C58.2284 33.7427 58.0734 33.7841 57.9408 33.8409C57.8082 33.8977 57.7052 33.9747 57.6319 34.0717C57.5585 34.1664 57.5218 34.2848 57.5218 34.4268C57.5218 34.6328 57.5963 34.7902 57.7455 34.8991C57.897 35.0057 58.0888 35.0589 58.3208 35.0589ZM62.1329 36V30.5455H63.5995V31.4972H63.6564C63.7558 31.1586 63.9227 30.9029 64.1571 30.7301C64.3914 30.5549 64.6613 30.4673 64.9667 30.4673C65.0425 30.4673 65.1242 30.4721 65.2118 30.4815C65.2994 30.491 65.3763 30.504 65.4426 30.5206V31.8629C65.3716 31.8416 65.2733 31.8227 65.1478 31.8061C65.0224 31.7895 64.9075 31.7812 64.8034 31.7812C64.5808 31.7812 64.382 31.8298 64.2068 31.9268C64.034 32.0215 63.8967 32.1541 63.7949 32.3246C63.6954 32.495 63.6457 32.6915 63.6457 32.9141V36H62.1329ZM67.7375 32.8466V36H66.2247V30.5455H67.6665V31.5078H67.7304C67.8511 31.1906 68.0536 30.9396 68.3376 30.755C68.6217 30.5679 68.9662 30.4744 69.371 30.4744C69.7498 30.4744 70.0801 30.5573 70.3618 30.723C70.6435 30.8887 70.8625 31.1255 71.0188 31.4332C71.175 31.7386 71.2531 32.1032 71.2531 32.527V36H69.7403V32.7969C69.7427 32.4631 69.6575 32.2027 69.4847 32.0156C69.3118 31.8262 69.0739 31.7315 68.7709 31.7315C68.5673 31.7315 68.3874 31.7753 68.2311 31.8629C68.0772 31.9505 67.9565 32.0784 67.8689 32.2464C67.7837 32.4122 67.7399 32.6122 67.7375 32.8466ZM73.3297 36.0923C73.0953 36.0923 72.894 36.0095 72.726 35.8438C72.5602 35.6757 72.4774 35.4744 72.4774 35.2401C72.4774 35.008 72.5602 34.8092 72.726 34.6435C72.894 34.4777 73.0953 34.3949 73.3297 34.3949C73.5569 34.3949 73.7558 34.4777 73.9262 34.6435C74.0967 34.8092 74.1819 35.008 74.1819 35.2401C74.1819 35.3963 74.1417 35.5395 74.0612 35.6697C73.9831 35.7976 73.8801 35.9006 73.7522 35.9787C73.6244 36.0545 73.4835 36.0923 73.3297 36.0923ZM79.0621 36L76.9811 28.7273H78.6608L79.8646 33.7805H79.925L81.2531 28.7273H82.6913L84.0159 33.7912H84.0798L85.2837 28.7273H86.9634L84.8824 36H83.3838L81.9989 31.245H81.942L80.5607 36H79.0621ZM87.4161 36V30.5455H88.8827V31.4972H88.9396C89.039 31.1586 89.2059 30.9029 89.4403 30.7301C89.6746 30.5549 89.9445 30.4673 90.2499 30.4673C90.3257 30.4673 90.4074 30.4721 90.495 30.4815C90.5826 30.491 90.6595 30.504 90.7258 30.5206V31.8629C90.6548 31.8416 90.5565 31.8227 90.431 31.8061C90.3056 31.7895 90.1907 31.7812 90.0866 31.7812C89.864 31.7812 89.6652 31.8298 89.49 31.9268C89.3172 32.0215 89.1799 32.1541 89.0781 32.3246C88.9786 32.495 88.9289 32.6915 88.9289 32.9141V36H87.4161ZM91.5079 36V30.5455H93.0207V36H91.5079ZM92.2679 29.8423C92.043 29.8423 91.85 29.7678 91.689 29.6186C91.5304 29.4671 91.4511 29.286 91.4511 29.0753C91.4511 28.867 91.5304 28.6882 91.689 28.5391C91.85 28.3875 92.043 28.3118 92.2679 28.3118C92.4928 28.3118 92.6845 28.3875 92.8431 28.5391C93.0041 28.6882 93.0846 28.867 93.0846 29.0753C93.0846 29.286 93.0041 29.4671 92.8431 29.6186C92.6845 29.7678 92.4928 29.8423 92.2679 29.8423ZM97.1338 30.5455V31.6818H93.849V30.5455H97.1338ZM94.5947 29.2386H96.1075V34.3239C96.1075 34.4635 96.1288 34.5724 96.1715 34.6506C96.2141 34.7263 96.2733 34.7796 96.349 34.8104C96.4271 34.8411 96.5171 34.8565 96.6189 34.8565C96.6899 34.8565 96.7609 34.8506 96.832 34.8388C96.903 34.8246 96.9574 34.8139 96.9953 34.8068L97.2332 35.9325C97.1575 35.9562 97.0509 35.9834 96.9136 36.0142C96.7763 36.0473 96.6094 36.0675 96.4129 36.0746C96.0483 36.0888 95.7287 36.0402 95.4541 35.929C95.1819 35.8177 94.97 35.6449 94.8185 35.4105C94.667 35.1761 94.5924 34.8802 94.5947 34.5227V29.2386ZM100.546 36.1065C99.9854 36.1065 99.5024 35.9929 99.0976 35.7656C98.6951 35.536 98.385 35.2116 98.1672 34.7926C97.9494 34.3712 97.8405 33.8729 97.8405 33.2976C97.8405 32.7365 97.9494 32.2441 98.1672 31.8203C98.385 31.3965 98.6916 31.0663 99.0869 30.8295C99.4847 30.5928 99.951 30.4744 100.486 30.4744C100.846 30.4744 101.181 30.5324 101.491 30.6484C101.804 30.7621 102.076 30.9337 102.308 31.1634C102.542 31.393 102.724 31.6818 102.855 32.0298C102.985 32.3755 103.05 32.7803 103.05 33.2443V33.6598H98.4442V32.7223H101.626C101.626 32.5045 101.579 32.3116 101.484 32.1435C101.389 31.9754 101.258 31.844 101.09 31.7493C100.924 31.6522 100.731 31.6037 100.511 31.6037C100.281 31.6037 100.078 31.657 99.9001 31.7635C99.725 31.8677 99.5876 32.0085 99.4882 32.1861C99.3888 32.3613 99.3379 32.5566 99.3355 32.772V33.6634C99.3355 33.9332 99.3852 34.1664 99.4847 34.3629C99.5865 34.5594 99.7297 34.7109 99.9143 34.8175C100.099 34.924 100.318 34.9773 100.571 34.9773C100.739 34.9773 100.893 34.9536 101.033 34.9062C101.173 34.8589 101.292 34.7879 101.392 34.6932C101.491 34.5985 101.567 34.4825 101.619 34.3452L103.018 34.4375C102.947 34.7737 102.801 35.0672 102.581 35.3182C102.363 35.5668 102.082 35.7609 101.736 35.9006C101.393 36.0379 100.996 36.1065 100.546 36.1065ZM104.921 36.0923C104.687 36.0923 104.486 36.0095 104.318 35.8438C104.152 35.6757 104.069 35.4744 104.069 35.2401C104.069 35.008 104.152 34.8092 104.318 34.6435C104.486 34.4777 104.687 34.3949 104.921 34.3949C105.149 34.3949 105.348 34.4777 105.518 34.6435C105.688 34.8092 105.774 35.008 105.774 35.2401C105.774 35.3963 105.733 35.5395 105.653 35.6697C105.575 35.7976 105.472 35.9006 105.344 35.9787C105.216 36.0545 105.075 36.0923 104.921 36.0923ZM112.962 30.8189C112.934 30.5324 112.812 30.3099 112.596 30.1513C112.381 29.9927 112.089 29.9134 111.719 29.9134C111.468 29.9134 111.256 29.9489 111.084 30.0199C110.911 30.0885 110.778 30.1844 110.686 30.3075C110.596 30.4306 110.551 30.5703 110.551 30.7266C110.546 30.8568 110.573 30.9704 110.633 31.0675C110.694 31.1645 110.778 31.2486 110.885 31.3196C110.991 31.3883 111.114 31.4486 111.254 31.5007C111.394 31.5504 111.543 31.593 111.701 31.6286L112.355 31.7848C112.672 31.8558 112.963 31.9505 113.228 32.0689C113.494 32.1873 113.723 32.3329 113.917 32.5057C114.111 32.6785 114.262 32.8821 114.368 33.1165C114.477 33.3509 114.533 33.6196 114.535 33.9226C114.533 34.3677 114.419 34.7536 114.194 35.0803C113.972 35.4046 113.65 35.6567 113.228 35.8366C112.809 36.0142 112.304 36.103 111.712 36.103C111.125 36.103 110.614 36.013 110.178 35.8331C109.745 35.6532 109.406 35.3868 109.162 35.0341C108.921 34.679 108.794 34.2398 108.782 33.7166H110.27C110.287 33.9605 110.357 34.1641 110.48 34.3274C110.605 34.4884 110.772 34.6103 110.981 34.6932C111.191 34.7737 111.429 34.8139 111.694 34.8139C111.955 34.8139 112.181 34.776 112.373 34.7003C112.567 34.6245 112.717 34.5192 112.824 34.3842C112.93 34.2493 112.983 34.0942 112.983 33.919C112.983 33.7557 112.935 33.6184 112.838 33.5071C112.743 33.3958 112.603 33.3011 112.419 33.223C112.236 33.1449 112.013 33.0739 111.748 33.0099L110.956 32.8111C110.343 32.6619 109.858 32.4287 109.503 32.1115C109.148 31.7943 108.972 31.367 108.974 30.8295C108.972 30.3892 109.089 30.0045 109.326 29.6754C109.565 29.3464 109.893 29.0895 110.309 28.9048C110.726 28.7202 111.2 28.6278 111.73 28.6278C112.27 28.6278 112.741 28.7202 113.143 28.9048C113.548 29.0895 113.863 29.3464 114.088 29.6754C114.313 30.0045 114.429 30.3857 114.436 30.8189H112.962ZM117.054 32.8466V36H115.541V28.7273H117.011V31.5078H117.075C117.198 31.1858 117.397 30.9337 117.672 30.7514C117.946 30.5668 118.291 30.4744 118.705 30.4744C119.084 30.4744 119.414 30.5573 119.696 30.723C119.98 30.8864 120.2 31.1219 120.356 31.4297C120.515 31.7351 120.593 32.1009 120.591 32.527V36H119.078V32.7969C119.08 32.4607 118.995 32.1991 118.822 32.0121C118.652 31.825 118.413 31.7315 118.105 31.7315C117.899 31.7315 117.717 31.7753 117.558 31.8629C117.402 31.9505 117.279 32.0784 117.189 32.2464C117.101 32.4122 117.056 32.6122 117.054 32.8466ZM123.337 36.103C122.989 36.103 122.679 36.0426 122.406 35.9219C122.134 35.7988 121.919 35.6177 121.76 35.3786C121.604 35.1371 121.526 34.8364 121.526 34.4766C121.526 34.1735 121.581 33.919 121.693 33.7131C121.804 33.5071 121.955 33.3414 122.147 33.2159C122.339 33.0904 122.557 32.9957 122.801 32.9318C123.047 32.8679 123.305 32.8229 123.575 32.7969C123.892 32.7637 124.148 32.733 124.342 32.7045C124.536 32.6738 124.677 32.6288 124.764 32.5696C124.852 32.5104 124.896 32.4228 124.896 32.3068V32.2855C124.896 32.0606 124.825 31.8866 124.683 31.7635C124.543 31.6404 124.344 31.5788 124.086 31.5788C123.814 31.5788 123.597 31.6392 123.436 31.7599C123.275 31.8783 123.169 32.0275 123.117 32.2074L121.717 32.0938C121.788 31.7623 121.928 31.4759 122.136 31.2344C122.345 30.9905 122.614 30.8035 122.943 30.6733C123.274 30.5407 123.658 30.4744 124.093 30.4744C124.396 30.4744 124.686 30.5099 124.963 30.581C125.243 30.652 125.49 30.7621 125.705 30.9112C125.923 31.0604 126.095 31.2521 126.22 31.4865C126.346 31.7185 126.408 31.9967 126.408 32.321V36H124.974V35.2436H124.931C124.844 35.4141 124.726 35.5644 124.58 35.6946C124.433 35.8224 124.257 35.9231 124.051 35.9964C123.845 36.0675 123.607 36.103 123.337 36.103ZM123.77 35.0589C123.993 35.0589 124.189 35.0152 124.359 34.9276C124.53 34.8376 124.664 34.7169 124.761 34.5653C124.858 34.4138 124.906 34.2422 124.906 34.0504V33.4716C124.859 33.5024 124.794 33.5308 124.711 33.5568C124.631 33.5805 124.539 33.603 124.438 33.6243C124.336 33.6432 124.234 33.661 124.132 33.6776C124.03 33.6918 123.938 33.7048 123.855 33.7166C123.678 33.7427 123.523 33.7841 123.39 33.8409C123.257 33.8977 123.154 33.9747 123.081 34.0717C123.008 34.1664 122.971 34.2848 122.971 34.4268C122.971 34.6328 123.046 34.7902 123.195 34.8991C123.346 35.0057 123.538 35.0589 123.77 35.0589ZM127.582 36V30.5455H129.049V31.4972H129.106C129.205 31.1586 129.372 30.9029 129.606 30.7301C129.841 30.5549 130.111 30.4673 130.416 30.4673C130.492 30.4673 130.573 30.4721 130.661 30.4815C130.749 30.491 130.826 30.504 130.892 30.5206V31.8629C130.821 31.8416 130.723 31.8227 130.597 31.8061C130.472 31.7895 130.357 31.7812 130.253 31.7812C130.03 31.7812 129.831 31.8298 129.656 31.9268C129.483 32.0215 129.346 32.1541 129.244 32.3246C129.145 32.495 129.095 32.6915 129.095 32.9141V36H127.582ZM133.906 36.1065C133.345 36.1065 132.862 35.9929 132.457 35.7656C132.055 35.536 131.744 35.2116 131.527 34.7926C131.309 34.3712 131.2 33.8729 131.2 33.2976C131.2 32.7365 131.309 32.2441 131.527 31.8203C131.744 31.3965 132.051 31.0663 132.446 30.8295C132.844 30.5928 133.31 30.4744 133.845 30.4744C134.205 30.4744 134.54 30.5324 134.85 30.6484C135.163 30.7621 135.435 30.9337 135.667 31.1634C135.902 31.393 136.084 31.6818 136.214 32.0298C136.344 32.3755 136.409 32.7803 136.409 33.2443V33.6598H131.804V32.7223H134.985C134.985 32.5045 134.938 32.3116 134.843 32.1435C134.749 31.9754 134.617 31.844 134.449 31.7493C134.283 31.6522 134.09 31.6037 133.87 31.6037C133.641 31.6037 133.437 31.657 133.26 31.7635C133.084 31.8677 132.947 32.0085 132.848 32.1861C132.748 32.3613 132.697 32.5566 132.695 32.772V33.6634C132.695 33.9332 132.745 34.1664 132.844 34.3629C132.946 34.5594 133.089 34.7109 133.274 34.8175C133.458 34.924 133.677 34.9773 133.931 34.9773C134.099 34.9773 134.253 34.9536 134.392 34.9062C134.532 34.8589 134.652 34.7879 134.751 34.6932C134.85 34.5985 134.926 34.4825 134.978 34.3452L136.377 34.4375C136.306 34.7737 136.161 35.0672 135.941 35.3182C135.723 35.5668 135.441 35.7609 135.095 35.9006C134.752 36.0379 134.356 36.1065 133.906 36.1065ZM138.281 36.0923C138.046 36.0923 137.845 36.0095 137.677 35.8438C137.511 35.6757 137.429 35.4744 137.429 35.2401C137.429 35.008 137.511 34.8092 137.677 34.6435C137.845 34.4777 138.046 34.3949 138.281 34.3949C138.508 34.3949 138.707 34.4777 138.877 34.6435C139.048 34.8092 139.133 35.008 139.133 35.2401C139.133 35.3963 139.093 35.5395 139.012 35.6697C138.934 35.7976 138.831 35.9006 138.703 35.9787C138.576 36.0545 138.435 36.0923 138.281 36.0923ZM142.376 36V28.7273H145.245C145.797 28.7273 146.267 28.8326 146.655 29.0433C147.044 29.2517 147.339 29.5417 147.543 29.9134C147.749 30.2827 147.852 30.7088 147.852 31.1918C147.852 31.6747 147.748 32.1009 147.54 32.4702C147.331 32.8395 147.029 33.1271 146.634 33.3331C146.241 33.5391 145.765 33.642 145.206 33.642H143.378V32.4098H144.958C145.254 32.4098 145.498 32.3589 145.689 32.2571C145.884 32.1529 146.028 32.0097 146.123 31.8274C146.22 31.6428 146.268 31.4309 146.268 31.1918C146.268 30.9503 146.22 30.7396 146.123 30.5597C146.028 30.3774 145.884 30.2365 145.689 30.1371C145.495 30.0353 145.249 29.9844 144.951 29.9844H143.914V36H142.376ZM152.32 33.6776V30.5455H153.833V36H152.381V35.0092H152.324C152.201 35.3288 151.996 35.5857 151.709 35.7798C151.425 35.974 151.079 36.071 150.669 36.071C150.304 36.071 149.984 35.9882 149.707 35.8224C149.43 35.6567 149.213 35.4212 149.057 35.1158C148.903 34.8104 148.825 34.4446 148.822 34.0185V30.5455H150.335V33.7486C150.338 34.0705 150.424 34.325 150.594 34.5121C150.765 34.6991 150.993 34.7926 151.28 34.7926C151.462 34.7926 151.633 34.7512 151.791 34.6683C151.95 34.5831 152.078 34.4576 152.175 34.2919C152.274 34.1262 152.323 33.9214 152.32 33.6776ZM155.071 36V28.7273H156.584V31.4616H156.63C156.697 31.3149 156.793 31.1657 156.918 31.0142C157.046 30.8603 157.212 30.7325 157.415 30.6307C157.621 30.5265 157.877 30.4744 158.182 30.4744C158.58 30.4744 158.947 30.5786 159.283 30.7869C159.619 30.9929 159.888 31.3042 160.089 31.7209C160.29 32.1352 160.391 32.6548 160.391 33.2798C160.391 33.8883 160.293 34.402 160.096 34.821C159.902 35.2377 159.637 35.5537 159.301 35.7692C158.967 35.9822 158.593 36.0888 158.179 36.0888C157.885 36.0888 157.635 36.0402 157.429 35.9432C157.226 35.8461 157.059 35.7242 156.929 35.5774C156.799 35.4283 156.699 35.2779 156.63 35.1264H156.563V36H155.071ZM156.552 33.2727C156.552 33.5971 156.597 33.88 156.687 34.1214C156.777 34.3629 156.907 34.5511 157.078 34.6861C157.248 34.8187 157.455 34.8849 157.699 34.8849C157.946 34.8849 158.154 34.8175 158.324 34.6825C158.495 34.5452 158.624 34.3558 158.711 34.1143C158.801 33.8705 158.846 33.59 158.846 33.2727C158.846 32.9579 158.803 32.6809 158.715 32.4418C158.627 32.2027 158.498 32.0156 158.328 31.8807C158.157 31.7457 157.948 31.6783 157.699 31.6783C157.453 31.6783 157.245 31.7434 157.074 31.8736C156.906 32.0038 156.777 32.1884 156.687 32.4276C156.597 32.6667 156.552 32.9484 156.552 33.2727ZM162.913 28.7273V36H161.4V28.7273H162.913ZM164.125 36V30.5455H165.638V36H164.125ZM164.885 29.8423C164.66 29.8423 164.467 29.7678 164.306 29.6186C164.148 29.4671 164.068 29.286 164.068 29.0753C164.068 28.867 164.148 28.6882 164.306 28.5391C164.467 28.3875 164.66 28.3118 164.885 28.3118C165.11 28.3118 165.302 28.3875 165.46 28.5391C165.621 28.6882 165.702 28.867 165.702 29.0753C165.702 29.286 165.621 29.4671 165.46 29.6186C165.302 29.7678 165.11 29.8423 164.885 29.8423ZM171.388 32.1009L170.003 32.1861C169.979 32.0677 169.929 31.9612 169.85 31.8665C169.772 31.7694 169.669 31.6925 169.541 31.6357C169.416 31.5765 169.266 31.5469 169.09 31.5469C168.856 31.5469 168.658 31.5966 168.497 31.696C168.336 31.7931 168.256 31.9233 168.256 32.0866C168.256 32.2169 168.308 32.3269 168.412 32.4169C168.516 32.5069 168.695 32.5791 168.948 32.6335L169.936 32.8324C170.466 32.9413 170.861 33.1165 171.122 33.358C171.382 33.5994 171.512 33.9167 171.512 34.3097C171.512 34.6671 171.407 34.9808 171.196 35.2507C170.988 35.5206 170.702 35.7313 170.337 35.8828C169.975 36.032 169.557 36.1065 169.083 36.1065C168.361 36.1065 167.786 35.9562 167.358 35.6555C166.931 35.3525 166.682 34.9406 166.608 34.4197L168.096 34.3416C168.141 34.5618 168.25 34.7299 168.423 34.8459C168.596 34.9595 168.817 35.0163 169.087 35.0163C169.352 35.0163 169.565 34.9654 169.726 34.8636C169.889 34.7595 169.972 34.6257 169.975 34.4624C169.972 34.325 169.914 34.2126 169.801 34.125C169.687 34.035 169.512 33.9664 169.275 33.919L168.331 33.7308C167.798 33.6243 167.401 33.4396 167.141 33.1768C166.883 32.9141 166.754 32.5791 166.754 32.1719C166.754 31.8215 166.849 31.5196 167.038 31.2663C167.23 31.013 167.498 30.8177 167.844 30.6804C168.192 30.5431 168.599 30.4744 169.066 30.4744C169.755 30.4744 170.297 30.62 170.692 30.9112C171.09 31.2024 171.322 31.599 171.388 32.1009ZM173.978 32.8466V36H172.465V28.7273H173.935V31.5078H173.999C174.122 31.1858 174.321 30.9337 174.596 30.7514C174.87 30.5668 175.215 30.4744 175.629 30.4744C176.008 30.4744 176.338 30.5573 176.62 30.723C176.904 30.8864 177.124 31.1219 177.28 31.4297C177.439 31.7351 177.517 32.1009 177.515 32.527V36H176.002V32.7969C176.004 32.4607 175.919 32.1991 175.746 32.0121C175.576 31.825 175.337 31.7315 175.029 31.7315C174.823 31.7315 174.641 31.7753 174.482 31.8629C174.326 31.9505 174.203 32.0784 174.113 32.2464C174.025 32.4122 173.98 32.6122 173.978 32.8466ZM179.589 36.0923C179.355 36.0923 179.154 36.0095 178.986 35.8438C178.82 35.6757 178.737 35.4744 178.737 35.2401C178.737 35.008 178.82 34.8092 178.986 34.6435C179.154 34.4777 179.355 34.3949 179.589 34.3949C179.817 34.3949 180.016 34.4777 180.186 34.6435C180.356 34.8092 180.442 35.008 180.442 35.2401C180.442 35.3963 180.401 35.5395 180.321 35.6697C180.243 35.7976 180.14 35.9006 180.012 35.9787C179.884 36.0545 179.743 36.0923 179.589 36.0923Z" fill="#00575B"/>
</svg>
